<?xml version="1.0" encoding="UTF-8"?>
<svg width="55px" height="57px" viewBox="0 0 55 57" version="1.1" xmlns="http://www.w3.org/2000/svg" xmlns:xlink="http://www.w3.org/1999/xlink">
    <!-- Generator: Sketch 55.2 (78181) - https://sketchapp.com -->
    <title>noun_Bear_2343008</title>
    <desc>Created with Sketch.</desc>
    <g id="Page-1" stroke="none" stroke-width="1" fill="none" fill-rule="evenodd">
        <g id="noun_Bear_2343008" fill="#33272A" fill-rule="nonzero">
            <g id="Group">
                <path d="M20.143,33.485 L22.256,29.962 C22.1726729,29.9857022 22.0866191,29.9984758 22,30 L17.816,30 C18.1065014,30.7835345 18.0510634,31.6535136 17.6634566,32.3938368 C17.2758499,33.13416 16.5924457,33.6753585 15.783,33.883 L15.133,36.093 C16.9128466,36.3497842 18.5497837,37.2122223 19.768,38.535 L20.959,39.835 L20.014,34.164 C19.9749328,33.9295283 20.0206661,33.6888079 20.143,33.485 Z" id="Path"></path>
                <path d="M7.121,18.427 L10.83,18.879 L9.2,7.44 L6.95,8.629 L6.75,8.734 L4.9,12.447 C4.8513277,12.5429722 4.78788854,12.6307072 4.712,12.707 L0.414,17 L2.365,18.951 L6.885,18.427 C6.96338004,18.4175031 7.04261996,18.4175031 7.121,18.427 L7.121,18.427 Z M6,13 L8,13 L8,15 L6,15 L6,13 Z" id="Shape"></path>
                <path d="M13.17,42.767 L12.588,44.744 C14.6997132,46.0508038 15.5233714,48.7153602 14.5174651,50.9858715 C13.5115589,53.2563828 10.9845887,54.4365078 8.59789692,53.7503801 C6.21120514,53.0642523 4.69676426,50.7222996 5.0502349,48.2642257 C5.40370553,45.8061518 7.51668207,43.9858212 10,44 C10.2347308,44.0069001 10.4686643,44.0306276 10.7,44.071 L11.274,42.122 C7.65680719,41.4497207 4.13479035,43.6862188 3.20491785,47.245907 C2.27504535,50.8055953 4.25328882,54.478888 7.73715315,55.6615682 C11.2210175,56.8442485 15.026682,55.1344404 16.4560836,51.7443291 C17.8854851,48.3542178 16.4529116,44.4357667 13.174,42.767 L13.17,42.767 Z" id="Path"></path>
                <polygon id="Path" points="10.415 2.939 7 5.5 7 6.339 11.793 3.8"></polygon>
                <polygon id="Path" points="7 0.804 7 3 8.597 1.802"></polygon>
                <path d="M12.886,19.13 L17.858,19.736 L16.051,14.316 L17.951,13.684 L20.951,22.684 C21.0364879,22.9406714 21.0143338,23.2210281 20.8895936,23.4610871 C20.7648534,23.7011461 20.5481718,23.8804218 20.289,23.958 L11.712,26.53 C11.2892128,26.65715 10.9999998,27.0465069 10.9999998,27.488 L10.9999998,28 C10.9999998,28.4171213 11.2584177,28.7905905 11.649,28.937 L12.293,28.293 C12.4804927,28.1054506 12.7348052,28.0000566 12.9999998,28 L21.7,28 L26.9999998,24.465 L26.9999998,14 L28.9999998,14 L28.9999998,19 L49.988,19 C49.993,18.844 50.00002,18.693 50.00002,18.52 C50.010514,12.0709801 45.8841397,6.34218904 39.764,4.309 L28.184,0.449 C25.9143996,-0.294521923 23.4407264,-0.0900652611 21.324,1.016 L14.271,4.751 L14.264,4.756 L11.074,6.445 L12.886,19.13 Z" id="Path"></path>
                <circle id="Oval" cx="15" cy="31" r="1"></circle>
                <path d="M10,46 C8.53607673,45.9856213 7.27124209,47.0199821 6.99476387,48.4576322 C6.71828565,49.8952823 7.50924725,51.3249986 8.87408177,51.8546256 C10.2389163,52.3842527 11.7872286,51.8622968 12.5528583,50.614463 C13.3184881,49.3666292 13.0824357,47.749846 11.992,46.773 L10.959,50.282 L9.041,49.718 L10.13,46.013 C10.086,46.011 10.045,46 10,46 Z" id="Path"></path>
                <path d="M40,50 L37.184,50 C37.6063753,51.2051928 38.7441392,52.0119558 40.0212025,52.0117969 C41.2982657,52.011638 42.4358289,51.2045921 42.8579044,49.9992942 C43.2799798,48.7939964 42.8944231,47.4535789 41.8964549,46.6567414 C40.8984866,45.8599039 39.5059763,45.7806064 38.424,46.459 L40.624,48.22 C40.9548045,48.485397 41.0822198,48.930597 40.9419154,49.3308243 C40.801611,49.7310515 40.4241068,49.9992461 40,50 Z" id="Path"></path>
                <path d="M29.872,45.656 C30.5874114,46.22313 31.0031645,47.0870707 31,48 L31.059,48 C31.2102895,46.6476263 31.6689933,45.3477946 32.4,44.2 L30.6,42.756 L29.872,45.656 Z" id="Path"></path>
                <path d="M40,41.9999951 C38.2236967,42.0012985 36.5149495,42.6809342 35.223,43.9 L36.823,45.177 C37.7105431,44.4231078 38.8355061,44.0063368 40,43.9999951 C42.6311265,44.000537 44.8116571,46.0401079 44.9877668,48.6653341 C45.1638764,51.2905602 43.2753011,53.6031014 40.6678215,53.955063 C38.0603418,54.3070246 35.6262254,52.577967 35.1,49.9999951 L33.08,49.9999951 C33.6138691,53.6987352 36.958991,56.3258376 40.678865,55.9677934 C44.3987389,55.6097492 47.1813649,52.3928406 46.9999496,48.6601812 C46.8185342,44.9275217 43.7370629,41.9956209 40,41.9999951 L40,41.9999951 Z" id="Path"></path>
                <path d="M50.586,21 L29,21 L29,25 C29.00005,25.3342785 28.8330697,25.6464754 28.555,25.832 L28.221,26.055 C28.8929114,26.3356745 29.6628393,26.2430402 30.249,25.811 L30.559,25.583 C32.0119411,24.5033445 34.0015978,24.5065982 35.451,25.591 L35.741,25.803 C36.4824442,26.3623745 37.5040023,26.365633 38.249,25.811 L38.559,25.583 C40.0119411,24.5033445 42.0015978,24.5065982 43.451,25.591 L43.741,25.803 C44.4824442,26.3623745 45.5040023,26.365633 46.249,25.811 L46.559,25.583 C47.2643995,25.058365 48.1208989,24.776608 49,24.78 C49.1245246,24.7776602 49.2490116,24.7863609 49.372,24.806 C50.1258998,24.8623038 50.8476472,25.1344779 51.451,25.59 C52.2865211,26.2180302 53.4574536,26.1326231 54.193,25.39 L54.586,25 L50.586,21 Z" id="Path"></path>
                <path d="M28.521,39.122 L42.191,31.662 C43.9505675,30.7037201 45.4982361,29.3995967 46.741,27.828 C45.3746567,28.4798018 43.7593032,28.3183436 42.549,27.409 L42.259,27.197 C41.5175558,26.6376255 40.4959977,26.634367 39.751,27.189 L39.441,27.417 C37.9878413,28.495996 35.9986219,28.4927429 34.549,27.409 L34.259,27.197 C33.5175558,26.6376255 32.4959977,26.634367 31.751,27.189 L31.441,27.417 C29.9878413,28.495996 27.9986219,28.4927429 26.549,27.409 L26.379,27.283 L24.789,28.342 L24.895,28.553 C25.0476857,28.8590636 25.0333519,29.2219337 24.857,29.515 L22.047,34.2 L23.986,45.836 C24.0393342,46.1546709 23.9354118,46.4794749 23.707,46.708 L23.414,47 L26.214,47 L28.027,39.757 C28.0955042,39.4855075 28.2746947,39.2551716 28.521,39.122 Z" id="Path"></path>
                <path d="M35.569,46.733 L33.969,45.457 C33.509694,46.2385945 33.2076916,47.1024774 33.08,48 L35.1,48 C35.197242,47.5580843 35.3550671,47.1317207 35.569,46.733 L35.569,46.733 Z" id="Path"></path>
                <path d="M28.359,47.073 C28.3295447,47.0628171 28.2994872,47.0544678 28.269,47.048 L27.969,48.233 C27.9030039,48.493309 27.7340905,48.7156394 27.501,48.849 C27.6505221,48.9437413 27.8230358,48.9959449 28,49 C28.378366,48.9993624 28.7234888,48.7837577 28.89,48.444 C28.9638724,48.3077799 29.0017352,48.1549517 29,48 C29.0008099,47.5874829 28.7452387,47.2178815 28.359,47.073 Z" id="Path"></path>
            </g>
        </g>
    </g>
</svg>