<?xml version="1.0" encoding="UTF-8"?>
<svg width="96px" height="92px" viewBox="0 0 96 92" version="1.1" xmlns="http://www.w3.org/2000/svg" xmlns:xlink="http://www.w3.org/1999/xlink">
    <!-- Generator: Sketch 55.2 (78181) - https://sketchapp.com -->
    <title>Untitled</title>
    <desc>Created with Sketch.</desc>
    <g id="Page-1" stroke="none" stroke-width="1" fill="none" fill-rule="evenodd">
        <g id="noun_Bear_659521" fill="#33272A" fill-rule="nonzero">
            <path d="M94.2,64.1 L91.7,65.1 L92.5,67.7 L87.7,69.2 C84.2,74.2 79.6,78.4 74.2,81.3 L73.9,83.1 L71.5,82.7 L71.2,82.8 L70.5,85.2 L68,84.5 L67.1,87 L64.6,86.1 L63.5,88.5 L61,87.4 L59.7,89.7 L57.4,88.4 L55.9,90.6 L53.7,89.1 L52,91.2 L50,89.5 L48,91.3 L46.1,89.4 L44.1,91.1 L42.4,89 L40.2,90.5 L38.7,88.3 L36.4,89.6 L35,87.4 L32.6,88.5 L31.5,86.1 L29,87 L28,84.5 L25.4,85.2 L24.8,82.8 L24.5,82.7 L22.1,83.1 L21.8,81.3 C16.4,78.4 11.8,74.2 8.3,69.2 L3.5,67.7 L4.3,65.1 L1.8,64.1 L2.8,61.6 L0.5,60.3 L2.8,55.9 C2.3,53.4 2.1,50.8 2.1,48.3 C2.1,42 3.5,35.7 6.3,30 C1.8,26.6 1,20.1 4.4,15.7 C7.8,11.3 14.3,10.4 18.7,13.8 L19,11.3 L21.7,11.5 L22.2,8.9 L24.8,9.4 L25.5,6.8 L28.1,7.5 L29,5 L31.5,5.9 L32.6,3.5 L35,4.6 L36.3,2.3 L38.6,3.6 L40.1,1.4 L42.3,2.9 L44,0.8 L46,2.5 L48,0.7 L49.9,2.6 L51.9,0.9 L53.6,2.9 L55.8,1.4 L57.3,3.6 L59.6,2.3 L61,4.6 L63.4,3.5 L64.5,5.9 L67,5 L67.9,7.5 L70.5,6.8 L71.2,9.4 L73.8,8.9 L74.3,11.5 L76.9,11.3 L77.1,13.8 C81.6,10.3 88,11.2 91.5,15.6 C95,20.1 94.1,26.5 89.7,30 C92.5,35.7 93.9,42 93.9,48.3 C93.9,50.9 93.7,53.4 93.2,55.9 L95.5,60.3 L93.1,61.5 L94.2,64.1 Z M12.3,16.5 C9.5,16.5 7.1,18.8 7.1,21.7 C7.1,23.1 7.7,24.5 8.7,25.4 C10.5,22.5 12.7,19.8 15.2,17.4 C14.4,16.8 13.3,16.5 12.3,16.5 L12.3,16.5 Z M83.7,16.5 C82.6,16.5 81.6,16.8 80.7,17.4 C83.2,19.8 85.4,22.5 87.2,25.4 C89.3,23.4 89.4,20.2 87.4,18.1 C86.4,17.1 85,16.5 83.7,16.5 L83.7,16.5 Z M29.8,27 C29.8,25.8 28.8,24.8 27.6,24.8 C26.4,24.8 25.4,25.8 25.4,27 C25.4,28.2 26.4,29.2 27.6,29.2 C28.9,29.2 29.8,28.2 29.8,27 C29.8,27 29.8,27 29.8,27 L29.8,27 Z M66.2,27 C66.2,28.2 67.2,29.2 68.4,29.2 C69.6,29.2 70.6,28.2 70.6,27 C70.6,25.8 69.6,24.8 68.4,24.8 C67.2,24.8 66.2,25.8 66.2,27 C66.2,27 66.2,27 66.2,27 L66.2,27 Z M48,83 C49.8,83 51.6,83.8 53.4,83.4 C56,82.9 58.3,81.5 59.9,79.4 C61.6,76.9 63.9,67.1 64.9,60.4 C66,53.4 66.6,46.3 66.5,39.2 C66.1,20 48,21.8 48,21.8 C48,21.8 29.9,20 29.5,39.3 C29.4,46.4 29.9,53.5 31.1,60.5 C32.1,67.1 34.3,77 36.1,79.5 C37.7,81.6 40.1,83 42.6,83.5 C44.4,83.9 46.3,83.1 48,83 L48,83 Z" id="Shape"></path>
            <path d="M48,26.1 C48,26.1 54.2,25.8 56.5,29.1 C58.8,32.4 54.1,39 54.1,39 C54.1,39 53.1,40.8 48,40.8 C42.9,40.8 41.9,39 41.9,39 C41.9,39 37.2,32.5 39.5,29.1 C41.8,25.7 48,26.2 48,26.1" id="Path"></path>
            <path d="M48,79 C48.8,79 49.5,78.8 50.1,78.3 C51.5,77.5 52.3,75.7 52.9,74.2 C53.4,72.9 53.8,71.9 54.5,71.9 C55.6,72 55.7,73.7 55.7,74.4 C55.7,75.7 55.5,77 55.2,78.2 C55.8,78.3 57.1,77.3 57.5,76.9 C58.4,75.6 59,74.1 59.3,72.5 C59.7,70.9 60,69.2 60.3,67.6 C60.9,64.3 61.5,60.9 62,57.6 C62.3,55.6 62.5,53.5 62.5,51.4 C62.5,50.5 62.3,49.6 62,48.7 C61.9,48.4 61.7,48 61.4,47.8 C61.3,47.7 61.2,47.7 61.1,47.7 C60.9,48.9 60.6,50.1 60.2,51.3 C59.9,52.4 59.3,53.3 58.5,54.1 C58.1,54.7 57.4,54.9 56.7,54.6 C55.6,54 56.4,51.6 56.2,50.6 C56.2,49.3 55.8,48.1 55,47.1 C52.7,46.4 50.4,46.1 48,46.2 C45.6,46.1 43.3,46.4 41,47.1 C40.2,48.1 39.8,49.4 39.8,50.7 C39.7,51.7 40.4,54 39.3,54.7 C38.6,54.9 37.9,54.7 37.5,54.2 C36.7,53.4 36.1,52.4 35.8,51.4 C35.4,50.2 35.1,49.1 34.9,47.8 C34.8,47.8 34.6,47.8 34.6,47.9 C34.3,48.1 34.1,48.5 34,48.8 C33.7,49.7 33.5,50.6 33.5,51.5 C33.5,53.6 33.7,55.6 34,57.7 C34.5,61.1 35.1,64.4 35.7,67.7 C36,69.4 36.3,71 36.7,72.6 C37,74.2 37.6,75.7 38.4,77 C38.8,77.4 40.1,78.4 40.7,78.3 C40.4,77.1 40.2,75.8 40.2,74.5 C40.2,73.8 40.4,72 41.4,72 C42.1,72 42.5,73 43,74.3 C43.6,75.8 44.3,77.5 45.8,78.4 C46.5,78.8 47.2,79 48,79" id="Path"></path>
        </g>
    </g>
</svg>