<svg height='100px' width='100px'  fill="#000000" xmlns="http://www.w3.org/2000/svg" xmlns:xlink="http://www.w3.org/1999/xlink" version="1.1" x="0px" y="0px" viewBox="0 0 100 100" style="enable-background:new 0 0 100 100;" xml:space="preserve"><title>icons saved for noun</title><path d="M96.2,68.1l-2.5,1l0.8,2.6l-4.8,1.5c-3.5,5-8.1,9.2-13.5,12.1l-0.3,1.8l-2.4-0.4l-0.3,0.1l-0.7,2.4L70,88.5l-0.9,2.5  l-2.5-0.9l-1.1,2.4L63,91.4l-1.3,2.3l-2.3-1.3l-1.5,2.2l-2.2-1.5l-1.7,2.1l-2-1.7L50,95.3l-1.9-1.9l-2,1.7l-1.7-2.1l-2.2,1.5  l-1.5-2.2l-2.3,1.3L37,91.4l-2.4,1.1l-1.1-2.4l-2.5,0.9L30,88.5l-2.6,0.7l-0.6-2.4l-0.3-0.1l-2.4,0.4l-0.3-1.8  c-5.4-2.9-10-7.1-13.5-12.1l-4.8-1.5l0.8-2.6l-2.5-1l1-2.5l-2.3-1.3l2.3-4.4c-0.5-2.5-0.7-5.1-0.7-7.6c0-6.3,1.4-12.6,4.2-18.3  c-4.5-3.4-5.3-9.9-1.9-14.3s9.9-5.3,14.3-1.9l0.3-2.5l2.7,0.2l0.5-2.6l2.6,0.5l0.7-2.6l2.6,0.7l0.9-2.5l2.5,0.9l1.1-2.4L37,8.6  l1.3-2.3l2.3,1.3l1.5-2.2l2.2,1.5l1.7-2.1l2,1.7L50,4.7l1.9,1.9l2-1.7l1.7,2l2.2-1.5l1.5,2.2l2.3-1.3L63,8.6l2.4-1.1l1.1,2.4  l2.5-0.9l0.9,2.5l2.6-0.7l0.7,2.6l2.6-0.5l0.5,2.6l2.6-0.2l0.2,2.5c4.5-3.5,10.9-2.6,14.4,1.8c3.5,4.5,2.6,10.9-1.8,14.4  c2.8,5.7,4.2,12,4.2,18.3c0,2.6-0.2,5.1-0.7,7.6l2.3,4.4l-2.4,1.2L96.2,68.1z M14.3,20.5c-2.8,0-5.2,2.3-5.2,5.2  c0,1.4,0.6,2.8,1.6,3.7c1.8-2.9,4-5.6,6.5-8C16.4,20.8,15.3,20.5,14.3,20.5 M85.7,20.5c-1.1,0-2.1,0.3-3,0.9c2.5,2.4,4.7,5.1,6.5,8  c2.1-2,2.2-5.2,0.2-7.3C88.4,21.1,87,20.5,85.7,20.5 M31.8,31c0-1.2-1-2.2-2.2-2.2s-2.2,1-2.2,2.2c0,1.2,1,2.2,2.2,2.2  C30.9,33.2,31.8,32.2,31.8,31C31.8,31,31.8,31,31.8,31 M68.2,31c0,1.2,1,2.2,2.2,2.2s2.2-1,2.2-2.2c0-1.2-1-2.2-2.2-2.2  C69.2,28.8,68.2,29.8,68.2,31C68.2,31,68.2,31,68.2,31 M50,87c1.8,0,3.6,0.8,5.4,0.4c2.6-0.5,4.9-1.9,6.5-4c1.7-2.5,4-12.3,5-19  c1.1-7,1.7-14.1,1.6-21.2C68.1,24,50,25.8,50,25.8S31.9,24,31.5,43.3c-0.1,7.1,0.4,14.2,1.6,21.2c1,6.6,3.2,16.5,5,19  c1.6,2.1,4,3.5,6.5,4C46.4,87.9,48.3,87.1,50,87"></path><path d="M50,30.1c0,0,6.2-0.3,8.5,3s-2.4,9.9-2.4,9.9s-1,1.8-6.1,1.8s-6.1-1.8-6.1-1.8s-4.7-6.5-2.4-9.9S50,30.2,50,30.1"></path><path d="M50,83c0.8,0,1.5-0.2,2.1-0.7c1.4-0.8,2.2-2.6,2.8-4.1c0.5-1.3,0.9-2.3,1.6-2.3c1.1,0.1,1.2,1.8,1.2,2.5  c0,1.3-0.2,2.6-0.5,3.8c0.6,0.1,1.9-0.9,2.3-1.3c0.9-1.3,1.5-2.8,1.8-4.4c0.4-1.6,0.7-3.3,1-4.9c0.6-3.3,1.2-6.7,1.7-10  c0.3-2,0.5-4.1,0.5-6.2c0-0.9-0.2-1.8-0.5-2.7c-0.1-0.3-0.3-0.7-0.6-0.9c-0.1-0.1-0.2-0.1-0.3-0.1c-0.2,1.2-0.5,2.4-0.9,3.6  c-0.3,1.1-0.9,2-1.7,2.8c-0.4,0.6-1.1,0.8-1.8,0.5c-1.1-0.6-0.3-3-0.5-4c0-1.3-0.4-2.5-1.2-3.5c-2.3-0.7-4.6-1-7-0.9  c-2.4-0.1-4.7,0.2-7,0.9c-0.8,1-1.2,2.3-1.2,3.6c-0.1,1,0.6,3.3-0.5,4c-0.7,0.2-1.4,0-1.8-0.5c-0.8-0.8-1.4-1.8-1.7-2.8  c-0.4-1.2-0.7-2.3-0.9-3.6c-0.1,0-0.3,0-0.3,0.1c-0.3,0.2-0.5,0.6-0.6,0.9c-0.3,0.9-0.5,1.8-0.5,2.7c0,2.1,0.2,4.1,0.5,6.2  c0.5,3.4,1.1,6.7,1.7,10c0.3,1.7,0.6,3.3,1,4.9c0.3,1.6,0.9,3.1,1.7,4.4c0.4,0.4,1.7,1.4,2.3,1.3c-0.3-1.2-0.5-2.5-0.5-3.8  c0-0.7,0.2-2.5,1.2-2.5c0.7,0,1.1,1,1.6,2.3c0.6,1.5,1.3,3.2,2.8,4.1C48.5,82.8,49.2,83,50,83"></path></svg>